<svg viewBox="0 0 120 120" fill="none" xmlns="http://www.w3.org/2000/svg"><path fill="url(#a)" d="M0 0h120v120h-120z"/><path d="M59.45 97a27 27 0 0 1-10.47-1.85 13.11 13.11 0 0 1-6.76-6.55c-1.48-3.13-2.22-7.54-2.22-13.22v-4.2h12.06v5.19c0 3.46.33 6.13.99 8.03.65 1.9 1.56 3.21 2.7 3.95a7.8 7.8 0 0 0 3.94 1 7.2 7.2 0 0 0 5.66-2.36c1.48-1.64 2.22-4.7 2.22-9.14 0-3.3-.5-5.76-1.48-7.41a10.25 10.25 0 0 0-4.67-3.95 91.31 91.31 0 0 0-8-3.59 30.77 30.77 0 0 1-7.02-4.32 15.15 15.15 0 0 1-4.43-6.3c-.99-2.55-1.48-5.73-1.48-9.51 0-4.62.58-8.36 1.73-11.25a11.78 11.78 0 0 1 6.15-6.42c2.87-1.4 6.73-2.1 11.57-2.1 6.23 0 11 1.44 14.28 4.32 3.28 2.8 4.92 6.92 4.92 12.36v8.52h-11.57v-5.06c0-3.8-.62-6.51-1.85-8.16-1.15-1.73-3.03-2.6-5.66-2.6-2.7 0-4.68.83-5.9 2.48-1.15 1.56-1.73 4.08-1.73 7.54 0 2.96.58 5.27 1.72 6.91a12.18 12.18 0 0 0 4.43 3.71 71.8 71.8 0 0 0 5.79 2.47c3.7 1.4 6.69 2.84 8.98 4.32a13.1 13.1 0 0 1 5.05 5.93c1.07 2.48 1.6 5.98 1.6 10.5 0 5.2-.86 9.31-2.58 12.36a14.31 14.31 0 0 1-7.14 6.42c-3.04 1.32-6.65 1.98-10.83 1.98Z" fill="#fff"/><defs><linearGradient id="a" x1="23.729" y1="0" x2="126.942" y2="12.773" gradientUnits="userSpaceOnUse"><stop stop-color="#ED0233"/><stop offset="1" stop-color="#003EB7"/></linearGradient></defs></svg>