<svg xmlns="http://www.w3.org/2000/svg" xmlns:xlink="http://www.w3.org/1999/xlink"><symbol id="sprite-arrow-next" fill="none" viewBox="0 0 18 34"><path d="m1 1 16 16-16 16"/></symbol><use xlink:href="#sprite-arrow-next" width="18" height="34"/><view id="sprite-arrow-next-view" viewBox="0 0 18 34"/><symbol id="sprite-classmate" viewBox="0 0 25 25"><path d="M12.68 6.89c.9 0 1.63.75 1.63 1.68s-.73 1.68-1.63 1.68-1.63-.75-1.63-1.68.73-1.68 1.63-1.68m0 5.74a4 4 0 0 0 3.94-4.06 4 4 0 0 0-3.94-4.06 4 4 0 0 0-3.93 4.06 4 4 0 0 0 3.93 4.06m1.6 3.31a7 7 0 0 0 2.28-.97c.53-.35.7-1.09.36-1.64a1.13 1.13 0 0 0-1.6-.38 4.9 4.9 0 0 1-5.29 0 1.13 1.13 0 0 0-1.59.38c-.34.55-.17 1.29.36 1.64a7 7 0 0 0 2.29.97l-2.2 2.27a1.2 1.2 0 0 0 0 1.68 1.14 1.14 0 0 0 1.63 0l2.16-2.23 2.16 2.23c.45.47 1.18.47 1.63 0s.45-1.21 0-1.68z"/></symbol><use xlink:href="#sprite-classmate" width="25" height="25" y="34"/><view id="sprite-classmate-view" viewBox="0 34 25 25"/><symbol id="sprite-favicon" fill="none" viewBox="0 0 120 120"><path fill="url(#a)" d="M0 0h120v120h-120z"/><path fill="#fff" d="M59.45 97a27 27 0 0 1-10.47-1.85 13 13 0 0 1-6.76-6.55q-2.22-4.7-2.22-13.22v-4.2h12.06v5.19q0 5.18.99 8.03.98 2.84 2.7 3.95a8 8 0 0 0 3.94 1 7.2 7.2 0 0 0 5.66-2.36q2.22-2.47 2.22-9.14 0-4.94-1.48-7.41a10.3 10.3 0 0 0-4.67-3.95 91 91 0 0 0-8-3.59 31 31 0 0 1-7.02-4.32 15 15 0 0 1-4.43-6.3q-1.48-3.83-1.48-9.51 0-6.92 1.73-11.25a11.8 11.8 0 0 1 6.15-6.42q4.3-2.1 11.57-2.1 9.35 0 14.28 4.32 4.92 4.2 4.92 12.36v8.52h-11.57v-5.06q0-5.7-1.85-8.16-1.72-2.6-5.66-2.6-4.06 0-5.9 2.48-1.73 2.34-1.73 7.54 0 4.45 1.72 6.91a12 12 0 0 0 4.43 3.71 72 72 0 0 0 5.79 2.47q5.55 2.1 8.98 4.32a13 13 0 0 1 5.05 5.93q1.6 3.72 1.6 10.5 0 7.8-2.58 12.36a14.3 14.3 0 0 1-7.14 6.42q-4.56 1.98-10.83 1.98"/><defs><linearGradient id="a" x1="23.729" x2="126.942" y1="0" y2="12.773" gradientUnits="userSpaceOnUse"><stop stop-color="#ED0233"/><stop offset="1" stop-color="#003EB7"/></linearGradient></defs></symbol><use xlink:href="#sprite-favicon" width="120" height="120" y="59"/><view id="sprite-favicon-view" viewBox="0 59 120 120"/><symbol id="sprite-logo" fill="none" viewBox="0 0 130 26"><path fill="#fff" d="M112.98.36h3.61l4.18 17.3 4.16-17.3h3.19l-5.82 25.3h-3.08zm-1.46 0h3.44l.54 16.68v8.61h-3.98zm15.02 0h3.46v25.3h-3.96v-8.62zm-27.61 0 3.12 11.4 3.1-11.4h4.47l-5.5 16.1v9.2h-4.15v-9.2l-5.5-16.1zm-4.99 12.01v10.42q-.44.57-1.28 1.33a7.8 7.8 0 0 1-5.44 1.88 6.4 6.4 0 0 1-5.47-2.66 10 10 0 0 1-1.5-3.37 20 20 0 0 1-.52-4.8v-4.31q0-2.75.5-4.78.5-2.05 1.45-3.4.96-1.35 2.28-2.02a7 7 0 0 1 3-.66q2.3 0 3.79.96 1.48.95 2.25 2.83c.77 1.88.82 2.78.92 4.6h-3.97a9 9 0 0 0-.44-2.5 2.4 2.4 0 0 0-.91-1.29q-.59-.4-1.54-.4a2.7 2.7 0 0 0-1.41.37q-.6.34-1.02 1.14a7 7 0 0 0-.6 2.05q-.2 1.26-.2 3.06v4.34q0 1.8.23 3.06a7 7 0 0 0 .66 2.07q.45.8 1.12 1.16.69.35 1.62.35a3 3 0 0 0 1.91-.6l.46-.34v-4.66h-2.93v-3.83zm-30.83-12.01h6.56q2.06 0 3.5.87a5.6 5.6 0 0 1 2.22 2.57q.77 1.71.77 4.2a12 12 0 0 1-.44 3.52 7 7 0 0 1-1.28 2.4 6 6 0 0 1-1.99 1.54l-1.25.92h-5.32l-.02-4.22h3.7q.84 0 1.4-.45.55-.48.82-1.3.28-.85.28-1.99 0-1.2-.25-2.05a2.6 2.6 0 0 0-.77-1.32q-.52-.46-1.37-.46h-2.44v21.06h-4.12zm9.29 25.3-3.75-11.28 4.31-.02 3.84 11.05v.24zm-12.71-4.21v4.2h-8.9v-4.2zm-7.62-21.09v25.3h-4.12v-25.3zm6.42 10.25v4.08h-7.7v-4.08zm1.17-10.25v4.23h-8.87v-4.23zm-20.09 16.38h-4.19v-4.22h4.2q.86 0 1.41-.48.57-.49.82-1.34.24-.87.25-1.95 0-1.09-.27-2.03a3.6 3.6 0 0 0-.8-1.54 1.8 1.8 0 0 0-1.42-.6h-2.86v21.07h-4.1v-25.29h6.96a6 6 0 0 1 3.56 1.08q1.49 1.07 2.27 2.97.8 1.88.8 4.3 0 2.46-.8 4.26a6.3 6.3 0 0 1-2.27 2.78q-1.5 1-3.56 1Zm-14.22-16.38h4.1v17.37q0 2.92-.87 4.76a6 6 0 0 1-2.37 2.68 7 7 0 0 1-3.47.83 7 7 0 0 1-3.5-.83 5.7 5.7 0 0 1-2.4-2.68 11.5 11.5 0 0 1-.83-4.76v-17.37h4.1v17.37q0 1.65.3 2.54c.3.89.5 1 .88 1.21q.6.32 1.45.32.87 0 1.43-.32.57-.33.87-1.21.3-.9.31-2.54zm-16.08 18.64q0-.67-.1-1.23a2.5 2.5 0 0 0-.42-1.03q-.3-.46-.9-.93t-1.55-.98q-1.14-.59-2.21-1.25a11 11 0 0 1-1.93-1.56 7 7 0 0 1-1.36-2.09 8 8 0 0 1-.5-2.84q0-1.6.47-2.9a6.4 6.4 0 0 1 3.39-3.67q1.18-.5 2.63-.5 1.96 0 3.4 1 1.44 1.02 2.23 2.77a10 10 0 0 1 .8 4.03h-4.1a6 6 0 0 0-.25-1.9 2.7 2.7 0 0 0-.78-1.3 2 2 0 0 0-1.37-.47 2.1 2.1 0 0 0-2.07 1.46q-.24.66-.24 1.5 0 .62.24 1.12.26.49.69.89.43.38 1.03.75t1.32.7q1.38.69 2.46 1.5 1.05.8 1.78 1.8.72 1 1.08 2.25a10 10 0 0 1-.08 5.73 5.8 5.8 0 0 1-3.32 3.65 7.4 7.4 0 0 1-5.33.02 6.3 6.3 0 0 1-3.73-4.1q-.55-1.59-.55-3.74h4.12q0 1.15.18 1.96c.18.81.3.96.56 1.29q.38.47.93.71.56.23 1.28.23.8 0 1.3-.39.48-.38.7-1.02.2-.65.2-1.46"/></symbol><use xlink:href="#sprite-logo" width="130" height="26" y="179"/><view id="sprite-logo-view" viewBox="0 179 130 26"/><symbol id="sprite-reddit" viewBox="0 0 25 25"><path d="M13.85 5.56c-.44 0-.86.22-1.13.55a3 3 0 0 0-.52 1.14 9 9 0 0 0-.24 2.1 7 7 0 0 0-3.33 1.02 2 2 0 0 0-1.28-.5c-.5 0-.98.23-1.33.67-.68.85-.6 2.24.18 3.06q-.08.39-.08.78c0 2.8 2.86 5.06 6.38 5.06s6.38-2.26 6.38-5.06q0-.39-.08-.78c.78-.82.86-2.21.18-3.06a1.7 1.7 0 0 0-1.33-.67 2 2 0 0 0-1.28.5 7 7 0 0 0-3.31-1.03 9 9 0 0 1 .18-1.75q.12-.45.27-.65c.1-.12.17-.17.34-.17.36 0 .4.12.63.4q.14.23.43.5c.2.17.5.32.83.32v-1.22c-.09 0-.1 0-.17-.05l-.27-.35c-.25-.32-.73-.81-1.45-.81m3.51.11c-.84 0-1.52.77-1.52 1.71 0 .95.68 1.71 1.52 1.71s1.52-.76 1.52-1.7c0-.95-.68-1.72-1.52-1.72m0 .6c.54 0 .98.5.98 1.11s-.44 1.1-.98 1.1-.98-.49-.98-1.1c0-.6.44-1.1.98-1.1Zm-4.86 4.02c3 0 5.52 1.88 5.52 4.1s-2.53 4.08-5.52 4.08c-3 0-5.52-1.87-5.52-4.09s2.53-4.09 5.52-4.09m-5.13.55q.22 0 .45.12-.82.7-1.26 1.6c-.2-.47-.15-1.06.1-1.37a1 1 0 0 1 .7-.35Zm10.26 0q.43 0 .71.35c.25.3.3.9.1 1.37a5 5 0 0 0-1.26-1.6q.23-.1.45-.12m-7.3 1.53c-.53 0-.97.5-.97 1.1s.44 1.1.98 1.1.98-.5.98-1.1-.44-1.1-.98-1.1Zm4.33 0c-.54 0-.98.5-.98 1.1s.44 1.1.98 1.1.98-.5.98-1.1-.44-1.1-.98-1.1m-4.84 3.74c.34.8 1.4 1.58 2.68 1.58s2.36-.77 2.7-1.58c-.62.46-1.6.77-2.7.77s-2.06-.31-2.68-.77"/></symbol><use xlink:href="#sprite-reddit" width="25" height="25" y="205"/><view id="sprite-reddit-view" viewBox="0 205 25 25"/><symbol id="sprite-rub" fill="none" viewBox="0 0 24 34"><path fill="#102654" fill-rule="evenodd" d="M14.8 5.21h-6.8v8.65h6.8c2.43 0 4.4-1.94 4.4-4.32a4.36 4.36 0 0 0-4.4-4.33m-11.6-4.71v18.07h11.6c5.08 0 9.2-4.04 9.2-9.03a9.1 9.1 0 0 0-9.2-9.04z" clip-rule="evenodd"/><path fill="#102654" fill-rule="evenodd" d="M0 13.86h4.8v4.71h-4.8z" clip-rule="evenodd"/><path fill="#102654" fill-rule="evenodd" d="M2.93 22.75v-8.1h4.8v8.1h9.07v4.72h-9.07v6.03h-4.8v-6.03h-2.93v-4.72z" clip-rule="evenodd"/></symbol><use xlink:href="#sprite-rub" width="24" height="34" y="230"/><view id="sprite-rub-view" viewBox="0 230 24 34"/><symbol id="sprite-triangle" viewBox="0 0 9 12"><path d="m9 6-9 5.2v-10.4z"/></symbol><use xlink:href="#sprite-triangle" width="9" height="12" y="264"/><view id="sprite-triangle-view" viewBox="0 264 9 12"/><symbol id="sprite-user" fill="none" viewBox="0 0 18 20"><path stroke="#163152" stroke-linecap="square" stroke-linejoin="round" d="M15.67 19h-13.34c-.73 0-1.33-.55-1.33-1.23a4.9 4.9 0 0 1 3.43-4.58l.41-.14a12.8 12.8 0 0 1 8.32 0l.4.14a4.9 4.9 0 0 1 3.44 4.58c0 .68-.6 1.23-1.33 1.23Zm-8.7-9.6a4.8 4.8 0 0 0 4.06 0 4.2 4.2 0 0 0 2.32-2.8l.08-.31a4.1 4.1 0 0 0-.84-3.54l-.12-.14c-.82-1.01-2.1-1.61-3.47-1.61s-2.65.6-3.47 1.6l-.12.15a4.1 4.1 0 0 0-.84 3.54l.08.32a4.2 4.2 0 0 0 2.32 2.8Z"/></symbol><use xlink:href="#sprite-user" width="18" height="20" y="276"/><view id="sprite-user-view" viewBox="0 276 18 20"/><symbol id="sprite-vk" viewBox="0 0 25 25"><path d="M13.72 15.05c.45-.14 1.01.95 1.62 1.36.45.32.8.25.8.25l1.6-.02s.84-.06.45-.72c-.04-.06-.24-.5-1.2-1.4-1-.95-.87-.8.34-2.43q1.1-1.48.94-1.87c-.08-.25-.63-.18-.63-.18l-1.8.01q-.3-.01-.4.24s-.3.77-.67 1.43c-.8 1.38-1.13 1.45-1.26 1.37-.31-.2-.23-.8-.23-1.24 0-1.34.2-1.9-.4-2.04a3 3 0 0 0-.84-.09c-.65 0-1.2 0-1.5.16-.2.1-.37.33-.27.34.12.02.39.07.53.27.19.26.18.83.18.83s.11 1.58-.25 1.77c-.24.14-.58-.14-1.3-1.4-.36-.63-.64-1.35-.64-1.35s-.05-.13-.15-.2a1 1 0 0 0-.28-.11h-1.72s-.26.02-.35.13 0 .3 0 .3 1.34 3.2 2.86 4.8c1.4 1.47 3 1.38 3 1.38h.71s.22-.03.33-.15c.1-.1.1-.32.1-.32s-.01-.97.43-1.12"/></symbol><use xlink:href="#sprite-vk" width="25" height="25" y="296"/><view id="sprite-vk-view" viewBox="0 296 25 25"/></svg>